<svg width="118" height="17" viewBox="0 0 118 17" fill="none" xmlns="http://www.w3.org/2000/svg">
<path d="M8.44003 16.24C6.9867 16.24 5.67336 15.9267 4.50003 15.3C3.34003 14.6733 2.4267 13.8133 1.76003 12.72C1.1067 11.6133 0.780029 10.3733 0.780029 9C0.780029 7.62666 1.1067 6.39333 1.76003 5.29999C2.4267 4.19333 3.34003 3.32666 4.50003 2.7C5.67336 2.07333 6.9867 1.76 8.44003 1.76C9.89336 1.76 11.2 2.07333 12.36 2.7C13.52 3.32666 14.4334 4.19333 15.1 5.29999C15.7667 6.39333 16.1 7.62666 16.1 9C16.1 10.3733 15.7667 11.6133 15.1 12.72C14.4334 13.8133 13.52 14.6733 12.36 15.3C11.2 15.9267 9.89336 16.24 8.44003 16.24ZM8.44003 13.48C9.2667 13.48 10.0134 13.2933 10.68 12.92C11.3467 12.5333 11.8667 12 12.24 11.32C12.6267 10.64 12.82 9.86666 12.82 9C12.82 8.13333 12.6267 7.36 12.24 6.68C11.8667 6 11.3467 5.47333 10.68 5.1C10.0134 4.71333 9.2667 4.52 8.44003 4.52C7.61336 4.52 6.8667 4.71333 6.20003 5.1C5.53336 5.47333 5.0067 6 4.62003 6.68C4.2467 7.36 4.06003 8.13333 4.06003 9C4.06003 9.86666 4.2467 10.64 4.62003 11.32C5.0067 12 5.53336 12.5333 6.20003 12.92C6.8667 13.2933 7.61336 13.48 8.44003 13.48Z" fill="white"/>
<path d="M30.795 5.08C32.1417 5.08 33.2084 5.48 33.995 6.28C34.795 7.06666 35.195 8.25333 35.195 9.83999V16H32.075V10.32C32.075 9.46666 31.895 8.83333 31.535 8.42C31.1884 7.99333 30.6884 7.78 30.035 7.78C29.3017 7.78 28.7217 8.01999 28.295 8.49999C27.8684 8.96666 27.655 9.66666 27.655 10.6V16H24.535V10.32C24.535 8.62666 23.855 7.78 22.495 7.78C21.775 7.78 21.2017 8.01999 20.775 8.49999C20.3484 8.96666 20.135 9.66666 20.135 10.6V16H17.015V5.23999H19.995V6.48C20.395 6.02666 20.8817 5.68 21.455 5.44C22.0417 5.2 22.6817 5.08 23.375 5.08C24.135 5.08 24.8217 5.23333 25.435 5.54C26.0484 5.83333 26.5417 6.26666 26.915 6.83999C27.355 6.28 27.9084 5.84666 28.575 5.54C29.255 5.23333 29.995 5.08 30.795 5.08Z" fill="white"/>
<path d="M43.2316 5.08C44.5649 5.08 45.6383 5.48 46.4516 6.28C47.2783 7.08 47.6916 8.26666 47.6916 9.83999V16H44.5716V10.32C44.5716 9.46666 44.3849 8.83333 44.0116 8.42C43.6383 7.99333 43.0983 7.78 42.3916 7.78C41.6049 7.78 40.9783 8.02666 40.5116 8.51999C40.0449 8.99999 39.8116 9.72 39.8116 10.68V16H36.6916V5.23999H39.6716V6.5C40.0849 6.04666 40.5983 5.7 41.2116 5.46C41.8249 5.20666 42.4983 5.08 43.2316 5.08Z" fill="white"/>
<path d="M49.2197 5.23999H52.3397V16H49.2197V5.23999ZM50.7797 3.74C50.2064 3.74 49.7397 3.57333 49.3797 3.24C49.0197 2.90666 48.8397 2.49333 48.8397 1.99999C48.8397 1.50666 49.0197 1.09333 49.3797 0.759995C49.7397 0.426661 50.2064 0.259995 50.7797 0.259995C51.353 0.259995 51.8197 0.419995 52.1797 0.739995C52.5397 1.06 52.7197 1.46 52.7197 1.94C52.7197 2.45999 52.5397 2.89333 52.1797 3.24C51.8197 3.57333 51.353 3.74 50.7797 3.74Z" fill="white"/>
<path d="M60.8553 16.12C59.4687 16.12 58.2153 15.8133 57.0953 15.2C55.9887 14.5867 55.1153 13.74 54.4753 12.66C53.8487 11.5667 53.5353 10.3467 53.5353 9C53.5353 7.65333 53.8487 6.43999 54.4753 5.36C55.1153 4.26666 55.9953 3.41333 57.1153 2.79999C58.2353 2.18666 59.4887 1.87999 60.8753 1.87999C61.9153 1.87999 62.8753 2.05333 63.7553 2.4C64.6353 2.74666 65.382 3.25333 65.9953 3.91999L65.0553 4.85999C63.962 3.75333 62.582 3.19999 60.9153 3.19999C59.8087 3.19999 58.802 3.45333 57.8953 3.95999C56.9887 4.46666 56.2753 5.15999 55.7553 6.03999C55.2487 6.91999 54.9953 7.90666 54.9953 9C54.9953 10.0933 55.2487 11.08 55.7553 11.96C56.2753 12.84 56.9887 13.5333 57.8953 14.04C58.802 14.5467 59.8087 14.8 60.9153 14.8C62.5953 14.8 63.9753 14.24 65.0553 13.12L65.9953 14.06C65.382 14.7267 64.6287 15.24 63.7353 15.6C62.8553 15.9467 61.8953 16.12 60.8553 16.12Z" fill="white"/>
<path d="M72.9103 5.4C74.2303 5.4 75.277 5.78666 76.0503 6.56C76.837 7.32 77.2303 8.43333 77.2303 9.9V16H75.8103V10.04C75.8103 8.94666 75.537 8.11333 74.9903 7.54C74.4437 6.96666 73.6637 6.68 72.6503 6.68C71.517 6.68 70.617 7.02 69.9503 7.7C69.297 8.36666 68.9703 9.29333 68.9703 10.48V16H67.5503V1.15999H68.9703V7.32C69.357 6.70666 69.8903 6.23333 70.5703 5.9C71.2503 5.56666 72.0303 5.4 72.9103 5.4Z" fill="white"/>
<path d="M88.58 5.48V16H87.22V14.08C86.8467 14.72 86.3333 15.22 85.68 15.58C85.0267 15.9267 84.28 16.1 83.44 16.1C82.0667 16.1 80.98 15.72 80.18 14.96C79.3933 14.1867 79 13.06 79 11.58V5.48H80.42V11.44C80.42 12.5467 80.6933 13.3867 81.24 13.96C81.7867 14.5333 82.5667 14.82 83.58 14.82C84.6867 14.82 85.56 14.4867 86.2 13.82C86.84 13.14 87.16 12.2 87.16 11V5.48H88.58Z" fill="white"/>
<path d="M91.94 7.54C92.2733 6.83333 92.7667 6.3 93.42 5.94C94.0867 5.58 94.9067 5.4 95.88 5.4V6.78L95.54 6.76C94.4333 6.76 93.5667 7.1 92.94 7.78C92.3133 8.46 92 9.41333 92 10.64V16H90.58V5.48H91.94V7.54Z" fill="white"/>
<path d="M101.88 16.1C100.84 16.1 99.9067 15.8733 99.08 15.42C98.2667 14.9667 97.6267 14.3333 97.16 13.52C96.6933 12.6933 96.46 11.7667 96.46 10.74C96.46 9.71333 96.6933 8.79333 97.16 7.98C97.6267 7.16666 98.2667 6.53333 99.08 6.08C99.9067 5.62666 100.84 5.4 101.88 5.4C102.787 5.4 103.593 5.58 104.3 5.94C105.02 6.28666 105.587 6.8 106 7.48L104.94 8.2C104.593 7.68 104.153 7.29333 103.62 7.04C103.087 6.77333 102.507 6.64 101.88 6.64C101.12 6.64 100.433 6.81333 99.82 7.16C99.22 7.49333 98.7467 7.97333 98.4 8.6C98.0667 9.22666 97.9 9.94 97.9 10.74C97.9 11.5533 98.0667 12.2733 98.4 12.9C98.7467 13.5133 99.22 13.9933 99.82 14.34C100.433 14.6733 101.12 14.84 101.88 14.84C102.507 14.84 103.087 14.7133 103.62 14.46C104.153 14.2067 104.593 13.82 104.94 13.3L106 14.02C105.587 14.7 105.02 15.22 104.3 15.58C103.58 15.9267 102.773 16.1 101.88 16.1Z" fill="white"/>
<path d="M112.86 5.4C114.18 5.4 115.227 5.78666 116 6.56C116.787 7.32 117.18 8.43333 117.18 9.9V16H115.76V10.04C115.76 8.94666 115.487 8.11333 114.94 7.54C114.393 6.96666 113.613 6.68 112.6 6.68C111.467 6.68 110.567 7.02 109.9 7.7C109.247 8.36666 108.92 9.29333 108.92 10.48V16H107.5V1.15999H108.92V7.32C109.307 6.70666 109.84 6.23333 110.52 5.9C111.2 5.56666 111.98 5.4 112.86 5.4Z" fill="white"/>
</svg>
